Coordinates
version=1
nRows=17
nColumns=40
inDegrees=yes

Units are S.I. units (second, meters, Newtons, ...)
Angles are in degrees.

endheader
time	pelvis_tilt	pelvis_list	pelvis_rotation	pelvis_tx	pelvis_ty	pelvis_tz	hip_flexion_r	hip_adduction_r	hip_rotation_r	knee_angle_r	knee_angle_r_beta	ankle_angle_r	subtalar_angle_r	mtp_angle_r	hip_flexion_l	hip_adduction_l	hip_rotation_l	knee_angle_l	knee_angle_l_beta	ankle_angle_l	subtalar_angle_l	mtp_angle_l	lumbar_extension	lumbar_bending	lumbar_rotation	arm_flex_r	arm_add_r	arm_rot_r	elbow_flex_r	pro_sup_r	wrist_flex_r	wrist_dev_r	arm_flex_l	arm_add_l	arm_rot_l	elbow_flex_l	pro_sup_l	wrist_flex_l	wrist_dev_l
     50.43250000	     -6.27950081	     -4.09747673	      1.07005093	      1.13205366	      0.91517347	      0.46720414	      0.45654271	     -2.11919934	    -13.24759137	     32.02473212	     32.02473212	     11.57288450	     -2.94989830	    -16.18955193	     30.70493010	     -4.58082677	     -1.89148845	     26.53874041	     26.53874041	      5.47148144	    -16.02911583	      5.27552737	     -6.54436155	      4.02452788	      3.90055276	     41.16790466	    -15.80993605	     -8.60138661	     97.36083409	     44.58824512	      0.00000000	      0.00000000	    -14.23431263	     -5.90741165	     10.88175676	     22.61263256	     43.65914129	      0.00000000	      0.00000000
     50.44428571	     -6.35816835	     -4.05169710	      0.91812949	      1.13142126	      0.91679027	      0.46492400	      2.68520530	     -2.76037006	    -12.44174743	     36.50432879	     36.50432879	      9.00003931	     -5.94896403	    -17.04329920	     29.92883637	     -4.46536212	     -2.12882319	     26.20937561	     26.20937561	      6.02748411	    -15.87916358	      4.95367965	     -6.52902186	      4.05034921	      3.78848799	     38.88960395	    -15.81909690	     -8.84723236	     96.76085308	     44.61561365	      0.00000000	      0.00000000	    -12.88920688	     -6.27142623	     10.65198466	     23.31209665	     43.75235546	      0.00000000	      0.00000000
     50.45607143	     -6.16942077	     -3.83891107	      0.79978858	      1.13074159	      0.91851511	      0.46257973	      4.74556401	     -3.66451626	    -11.89367187	     41.08384672	     41.08384672	      6.44049228	     -8.18736041	    -17.19520338	     28.89690842	     -4.19634100	     -2.51817323	     25.96249334	     25.96249334	      6.58440164	    -15.64064059	      4.62195182	     -6.87049062	      3.92000044	      3.48652144	     36.65978644	    -15.52212628	     -8.81018995	     95.96204629	     44.63560067	      0.00000000	      0.00000000	    -11.38476528	     -6.72107705	     10.47579691	     23.98547531	     43.82364868	      0.00000000	      0.00000000
     50.46785714	     -6.12495531	     -3.67834847	      0.67994397	      1.12976907	      0.91986824	      0.46043946	      7.15097859	     -4.39317135	    -11.14745653	     45.69563672	     45.69563672	      3.71049248	    -10.64294721	    -16.79627173	     28.01266954	     -3.97729034	     -2.87035040	     25.64628686	     25.64628686	      7.07440173	    -15.35894368	      4.27778523	     -7.03568511	      3.82346475	      3.26464663	     34.33828999	    -15.34061032	     -8.85475979	     94.84834774	     44.66768508	      0.00000000	      0.00000000	     -9.81684499	     -7.21783146	     10.25798119	     24.78986795	     43.90012147	      0.00000000	      0.00000000
     50.47964286	     -5.99186121	     -3.59703984	      0.60013398	      1.12863970	      0.92111051	      0.45840841	      9.51166704	     -4.95006774	    -10.40124673	     50.11051394	     50.11051394	      1.07361181	    -12.82415188	    -15.90065689	     27.09084807	     -3.82648494	     -3.13695683	     25.39281246	     25.39281246	      7.54829894	    -15.08403198	      3.91978137	     -7.30638927	      3.84283923	      3.04971378	     32.01715139	    -15.13264948	     -8.90928188	     93.50578750	     44.70666296	      0.00000000	      0.00000000	     -8.15388043	     -7.74725516	     10.02513455	     25.67492124	     43.97678102	      0.00000000	      0.00000000
     50.49142857	     -5.96717196	     -3.67281224	      0.44675763	      1.12732794	      0.92201393	      0.45682965	     12.25551971	     -5.07952656	     -9.32538680	     54.71485713	     54.71485713	      0.22348996	    -14.08628363	     -9.80081733	     26.29290310	     -3.92422812	     -3.52450113	     25.09857103	     25.09857103	      7.68093533	    -14.75449250	      2.50642683	     -7.41838844	      3.99937486	      3.02205358	     29.84529948	    -14.56699562	    -10.41483504	     90.87359357	     44.86550828	      0.00000000	      0.00000000	     -6.93907642	     -8.37872038	      8.89446724	     27.94482324	     44.28559104	      0.00000000	      0.00000000
     50.50321429	     -5.73722286	     -3.51787377	      0.42463891	      1.12597682	      0.92302251	      0.45487462	     14.51332338	     -5.65140995	     -8.73031713	     58.52068307	     58.52068307	     -1.86834853	    -15.25323381	     -8.99878940	     25.34728995	     -3.66587378	     -3.70168505	     24.95081711	     24.95081711	      8.17332139	    -14.58270704	      2.26419618	     -7.84564907	      3.97167091	      2.64986860	     27.51961951	    -14.23370224	    -10.06032691	     89.42911612	     44.89308929	      0.00000000	      0.00000000	     -4.98767762	     -8.98053124	      8.70405707	     28.69683842	     44.35326080	      0.00000000	      0.00000000
     50.51500000	     -5.70719750	     -3.42911755	      0.27732556	      1.12442616	      0.92370926	      0.45327036	     17.07943194	     -5.94009072	     -7.86917038	     62.06101234	     62.06101234	     -3.41794394	    -16.36004153	     -7.60310047	     24.58284981	     -3.53470354	     -3.97252099	     24.71983499	     24.71983499	      8.61860170	    -14.37057785	      2.00428179	     -8.01077291	      4.00644023	      2.67351479	     25.11720210	    -14.34746375	    -10.06663487	     87.08953000	     44.96199184	      0.00000000	      0.00000000	     -3.13201963	     -9.56720384	      8.44650365	     29.64063856	     44.43021374	      0.00000000	      0.00000000
     50.52678571	     -5.55749373	     -3.48991007	      0.23793215	      1.12282025	      0.92450208	      0.45171038	     19.63763337	     -5.96222641	     -7.05708643	     65.55576644	     65.55576644	     -2.30561927	    -15.72803099	      0.12145603	     23.78918535	     -3.55482615	     -4.16943755	     24.61607664	     24.61607664	      8.97835876	    -14.04893090	      1.32336862	     -8.18626559	      4.21361012	      2.17710241	     23.93430296	    -13.45494658	    -10.89946027	     81.78355136	     45.17092656	      0.00000000	      0.00000000	     -1.60677027	    -10.21605213	      7.79182797	     31.38927948	     44.63442716	      0.00000000	      0.00000000
     50.53857143	     -5.45739750	     -3.43311141	      0.16597801	      1.12120071	      0.92524909	      0.45018178	     21.94602558	     -6.11226557	     -6.36219486	     68.08127807	     68.08127807	     -3.17721516	    -16.23867203	      0.49124328	     22.99179691	     -3.42578710	     -4.32273932	     24.42430755	     24.42430755	      9.42036556	    -13.87284657	      1.15380448	     -8.43806691	      4.32754837	      2.24958491	     21.45157361	    -13.59065169	    -10.73380958	     79.54519618	     45.22993907	      0.00000000	      0.00000000	      0.49884020	    -10.80350908	      7.50456595	     32.44609890	     44.71716182	      0.00000000	      0.00000000
     50.55035714	     -5.18784197	     -3.53237781	      0.19289292	      1.11963898	      0.92625447	      0.44868821	     23.87469063	     -6.12993942	     -5.95523833	     69.98437111	     69.98437111	     -3.63069913	    -16.45816526	      0.57810421	     22.06830858	     -3.42966610	     -4.29543849	     24.31521281	     24.31521281	      9.91429613	    -13.72948218	      0.97669100	     -8.92329026	      4.66454270	      1.90694747	     19.18636127	    -13.13372957	    -10.53312987	     77.65578049	     45.27550122	      0.00000000	      0.00000000	      2.67728403	    -11.48982699	      7.27842723	     33.36404900	     44.78421732	      0.00000000	      0.00000000
     50.56214286	     -5.13003010	     -3.57885295	      0.04923015	      1.11792771	      0.92710091	      0.44740558	     26.09675140	     -6.03325619	     -5.31443207	     71.54110869	     71.54110869	     -3.43920434	    -16.46863687	      1.84628900	     21.26802513	     -3.44048383	     -4.50618998	     24.02361325	     24.02361325	     10.32863422	    -13.48664586	      0.79570437	     -8.97403111	      4.84029845	      1.96957354	     18.30954655	    -12.72078131	    -11.76262874	     70.47631208	     45.54848181	      0.00000000	      0.00000000	      4.60017995	    -12.00279213	      7.03913902	     34.79030823	     44.89567955	      0.00000000	      0.00000000
     50.57392857	     -4.99166618	     -3.67633969	     -0.05495031	      1.11626019	      0.92808113	      0.44619821	     28.02054336	     -5.91594582	     -4.89846336	     72.42966687	     72.42966687	     -3.38587578	    -16.57405323	      1.79821946	     20.38563680	     -3.47831232	     -4.60752427	     23.73550356	     23.73550356	     10.75123312	    -13.34792801	      0.71289099	     -9.30878986	      5.13618781	      2.31385600	     16.05202850	    -12.96747088	    -11.72422823	     67.30180126	     45.64157428	      0.00000000	      0.00000000	      6.89054356	    -12.40007821	      6.73360461	     36.16737675	     44.98396149	      0.00000000	      0.00000000
     50.58571429	     -4.83614108	     -3.81609971	     -0.13087136	      1.11465627	      0.92915091	      0.44508747	     29.75623260	     -5.74826450	     -4.61417891	     72.72913466	     72.72913466	     -3.17862057	    -16.70020691	      1.68778811	     19.47110832	     -3.56747933	     -4.69264266	     23.42426654	     23.42426654	     11.17990761	    -13.10350911	      0.63800101	     -9.52270726	      5.48715270	      1.90004079	     15.25563028	    -12.28017623	    -12.27194257	     61.25865359	     45.84984014	      0.00000000	      0.00000000	      8.72042689	    -13.07788384	      6.50352235	     37.44905936	     45.08451739	      0.00000000	      0.00000000
     50.59750000	     -4.68240767	     -3.94202394	     -0.25550005	      1.11307099	      0.93020672	      0.44410707	     31.34671919	     -5.56902067	     -4.39068211	     72.48537119	     72.48537119	     -2.88049871	    -16.84886322	      1.54387128	     18.50667362	     -3.63893823	     -4.77624012	     23.02045990	     23.02045990	     11.57163723	    -12.92440385	      0.60464872	     -9.86488331	      5.82751975	      2.33267832	     13.08026061	    -12.47451696	    -12.24652923	     57.99639126	     45.94506939	      0.00000000	      0.00000000	     10.97830843	    -13.42289503	      6.15959015	     38.95113012	     45.17473057	      0.00000000	      0.00000000
     50.60928571	     -4.52596539	     -4.09769159	     -0.40951403	      1.11153075	      0.93127490	      0.44333218	     32.77215416	     -5.36491484	     -4.30096291	     71.69860852	     71.69860852	     -2.59367564	    -17.00835550	      1.48656862	     17.50435216	     -3.76977503	     -4.95406349	     22.57523997	     22.57523997	     11.95847081	    -12.72131987	      0.55596485	    -10.19202278	      6.17260437	      2.68081026	     11.35737311	    -12.51940552	    -12.40266853	     53.74044221	     46.08385232	      0.00000000	      0.00000000	     13.16398017	    -13.77027321	      5.86894805	     40.46934323	     45.25884734	      0.00000000	      0.00000000
     50.62107143	     -4.44120301	     -4.27244780	     -0.51811332	      1.10998212	      0.93222606	      0.44260230	     34.07701869	     -5.16319464	     -4.35470957	     70.37883507	     70.37883507	     -2.28743174	    -17.14516403	      1.57132685	     16.59517190	     -3.92029214	     -5.10288490	     22.13634272	     22.13634272	     12.30788681	    -12.39689360	      0.42220872	    -10.30939830	      6.55891191	      1.95919473	     11.52876891	    -11.74967776	    -13.12464963	     46.08764777	     46.35934610	      0.00000000	      0.00000000	     14.54427919	    -14.63330447	      5.51191127	     42.19730726	     45.37132135	      0.00000000	      0.00000000
